<svg width="31" height="31" viewBox="0 0 31 31" fill="none" xmlns="http://www.w3.org/2000/svg">
<rect x="19.5918" y="14.7412" width="4.09179" height="4.24155" transform="rotate(-180 19.5918 14.7412)" fill="white" stroke="white"/>
<rect x="24.5918" y="9.74121" width="4.09179" height="4.24155" transform="rotate(-180 24.5918 9.74121)" fill="white" stroke="white"/>
<rect x="5.5" y="20.5" width="4.09179" height="4.24155" fill="white" stroke="white"/>
<rect x="29.5918" y="4.74121" width="4.09179" height="4.24155" transform="rotate(-180 29.5918 4.74121)" fill="white" stroke="white"/>
<rect x="0.716309" y="25.5488" width="4.09179" height="4.24155" fill="white" stroke="white"/>
<rect x="29.6665" y="25.5" width="4.09179" height="4.24155" transform="rotate(90 29.6665 25.5)" fill="white" stroke="white"/>
<rect x="0.641602" y="4.79102" width="4.09179" height="4.24155" transform="rotate(-90 0.641602 4.79102)" fill="white" stroke="white"/>
<rect x="24.6665" y="20.5" width="4.09179" height="4.24155" transform="rotate(90 24.6665 20.5)" fill="white" stroke="white"/>
<rect x="5.6416" y="9.79004" width="4.09179" height="4.24155" transform="rotate(-90 5.6416 9.79004)" fill="white" stroke="white"/>
<rect x="19.5918" y="19.7412" width="4.09179" height="4.24155" transform="rotate(-180 19.5918 19.7412)" fill="white" stroke="white"/>
<rect x="14.5918" y="14.7412" width="4.09179" height="4.24155" transform="rotate(-180 14.5918 14.7412)" fill="white" stroke="white"/>
<rect x="14.5918" y="19.7412" width="4.09179" height="4.24155" transform="rotate(-180 14.5918 19.7412)" fill="white" stroke="white"/>
</svg>
