<svg width="65" height="46" viewBox="0 0 65 46" fill="none" xmlns="http://www.w3.org/2000/svg">
<g clip-path="url(#clip0_230_2024)">
<path d="M18.5703 18.3992L18.5703 27.5991L27.8562 27.5991L27.8562 18.3992L18.5703 18.3992Z" fill="#CBFF0E"/>
<path d="M37.1445 18.3992L37.1445 27.5991L46.4304 27.5991L46.4304 18.3992L37.1445 18.3992Z" fill="#CBFF0E"/>
<path d="M55.7148 18.3992L55.7148 27.5991L65.0007 27.5991L65.0007 18.3992L55.7148 18.3992Z" fill="#CBFF0E"/>
<path d="M9.28516 18.3992L9.28516 27.5991L18.571 27.5991L18.571 18.3992L9.28516 18.3992Z" fill="#CBFF0E"/>
<path d="M8.04283e-07 18.3992L0 27.5991L9.28587 27.5991L9.28587 18.3992L8.04283e-07 18.3992Z" fill="#CBFF0E"/>
<path d="M27.8594 18.3992L27.8594 27.5991L37.1452 27.5991L37.1452 18.3992L27.8594 18.3992Z" fill="#CBFF0E"/>
<path d="M46.4297 18.3992L46.4297 27.5991L55.7156 27.5991L55.7156 18.3992L46.4297 18.3992Z" fill="#CBFF0E"/>
<path d="M9.28516 9.2012L9.28516 18.4011L18.571 18.4011L18.571 9.2012L9.28516 9.2012Z" fill="#CBFF0E"/>
<path d="M18.5703 36.8001L18.5703 46L27.8562 46L27.8562 36.8001L18.5703 36.8001Z" fill="#CBFF0E"/>
<path d="M18.5703 9.15527e-05L18.5703 9.20001L27.8562 9.20001L27.8562 9.23645e-05L18.5703 9.15527e-05Z" fill="#CBFF0E"/>
<path d="M9.28516 27.6004L9.28516 36.8003L18.571 36.8003L18.571 27.6004L9.28516 27.6004Z" fill="#CBFF0E"/>
</g>
<defs>
<clipPath id="clip0_230_2024">
<rect width="65" height="46" fill="white" transform="translate(65 46) rotate(-180)"/>
</clipPath>
</defs>
</svg>
