<svg width="65" height="46" viewBox="0 0 65 46" fill="none" xmlns="http://www.w3.org/2000/svg">
<rect x="46.4302" y="18.4009" width="9.19992" height="9.28587" transform="rotate(90 46.4302 18.4009)" fill="#CBFF0E"/>
<rect x="27.855" y="18.4009" width="9.19992" height="9.28587" transform="rotate(90 27.855 18.4009)" fill="#CBFF0E"/>
<rect x="9.28564" y="18.4009" width="9.19992" height="9.28587" transform="rotate(90 9.28564 18.4009)" fill="#CBFF0E"/>
<rect x="55.7153" y="18.4009" width="9.19992" height="9.28587" transform="rotate(90 55.7153 18.4009)" fill="#CBFF0E"/>
<rect x="64.9995" y="18.4009" width="9.19992" height="9.28587" transform="rotate(90 64.9995 18.4009)" fill="#CBFF0E"/>
<rect x="37.1401" y="18.4009" width="9.19992" height="9.28587" transform="rotate(90 37.1401 18.4009)" fill="#CBFF0E"/>
<rect x="18.5708" y="18.4009" width="9.19992" height="9.28587" transform="rotate(90 18.5708 18.4009)" fill="#CBFF0E"/>
<rect x="55.7153" y="27.5989" width="9.19992" height="9.28587" transform="rotate(90 55.7153 27.5989)" fill="#CBFF0E"/>
<rect x="46.4302" width="9.19992" height="9.28587" transform="rotate(90 46.4302 0)" fill="#CBFF0E"/>
<rect x="46.4302" y="36.8" width="9.19992" height="9.28587" transform="rotate(90 46.4302 36.8)" fill="#CBFF0E"/>
<rect x="55.7153" y="9.19971" width="9.19992" height="9.28587" transform="rotate(90 55.7153 9.19971)" fill="#CBFF0E"/>
</svg>
